<svg xmlns="http://www.w3.org/2000/svg" viewBox="0 0 581.09 416.67"><defs><style>.cls-1,.cls-5{opacity:0.15;}.cls-2,.cls-5{fill:#463e3b;}.cls-3{fill:#ea9178;}.cls-4{fill:#a76c59;}.cls-6{fill:#84e0ef;}.cls-7{fill:#8eeaff;}.cls-8{fill:#4c4c4c;}.cls-9{fill:#3f3f3f;}.cls-24,.cls-28,.cls-9{opacity:0.5;}.cls-10{fill:#fbd166;}.cls-11,.cls-22{opacity:0.4;}.cls-12,.cls-13,.cls-23,.cls-25{fill:#fff;}.cls-13{opacity:0.2;}.cls-14{fill:#f8bb8b;}.cls-15{fill:#c0916d;}.cls-16{fill:#ea8b6c;}.cls-17{fill:#de7f64;}.cls-18{fill:#f29f8a;}.cls-19{fill:#fcba64;}.cls-20{fill:#ff6e60;}.cls-21,.cls-22,.cls-24{fill:#be3c37;}.cls-23{font-size:7.63px;font-family:FiraSans-Bold, Fira Sans;font-weight:700;}.cls-25{opacity:0.1;}.cls-26{fill:#4b607c;}.cls-27{fill:#30425a;}.cls-28{fill:#566e86;}</style></defs><title>Asset 200</title><g id="Layer_2" data-name="Layer 2"><g id="Free_Stuff" data-name="Free Stuff"><g class="cls-1"><path class="cls-2" d="M177.71,104.61h-62v-19h62Zm-60-2h58v-15h-58Z"/><path class="cls-2" d="M132.71,122.61h-62v-19h62Zm-60-2h58v-15h-58Z"/></g><g class="cls-1"><path class="cls-2" d="M107.71,277.61h-62v-19h62Zm-60-2h58v-15h-58Z"/><path class="cls-2" d="M167.71,277.61h-62v-19h62Zm-60-2h58v-15h-58Z"/><path class="cls-2" d="M136.71,260.61h-62v-19h62Zm-60-2h58v-15h-58Z"/></g><g class="cls-1"><path class="cls-2" d="M504.71,359.61h-62v-19h62Zm-60-2h58v-15h-58Z"/><path class="cls-2" d="M564.71,359.61h-62v-19h62Zm-60-2h58v-15h-58Z"/></g><g class="cls-1"><path class="cls-2" d="M531.71,176.61h-62v-19h62Zm-60-2h58v-15h-58Z"/><path class="cls-2" d="M576.71,194.61h-62v-19h62Zm-60-2h58v-15h-58Z"/></g><polyline class="cls-3" points="52.34 302.97 52.34 393.61 64.01 393.61 64.01 302.28"/><polyline class="cls-4" points="52.34 304.32 52.34 309.61 64.01 309.61 64.01 304.28"/><rect class="cls-2" x="63.01" y="302.28" width="2" height="91.33"/><rect class="cls-2" x="51.34" y="302.97" width="2" height="90.64"/><polyline class="cls-3" points="517.35 302.97 517.35 393.61 529.01 393.61 529.01 302.28"/><polyline class="cls-4" points="517.35 304.32 517.35 309.61 529.01 309.61 529.01 304.28"/><rect class="cls-2" x="528.01" y="302.28" width="2" height="91.33"/><rect class="cls-2" x="516.34" y="302.97" width="2" height="90.64"/><rect class="cls-5" x="126.92" y="34.61" width="389" height="2"/><rect class="cls-6" x="130.1" y="40.83" width="383.09" height="180.79"/><rect class="cls-7" x="137.25" y="45.91" width="368.54" height="169.34" rx="12" ry="12"/><path class="cls-2" d="M513.92,222.61H128.82V39.83H513.92Zm-383.09-2H511.92V41.83H130.82Z"/><path class="cls-2" d="M512.54,228.61H130.2a6.38,6.38,0,0,1-6.38-6.38V39.2a6.38,6.38,0,0,1,6.38-6.38H512.54a6.38,6.38,0,0,1,6.38,6.38v183A6.38,6.38,0,0,1,512.54,228.61ZM130.2,34.83a4.38,4.38,0,0,0-4.38,4.38v183a4.38,4.38,0,0,0,4.38,4.38H512.54a4.38,4.38,0,0,0,4.38-4.38V39.2a4.38,4.38,0,0,0-4.38-4.38Z"/><polyline class="cls-8" points="189.8 295.56 189.8 283.61 449.17 283.61 449.17 296.15"/><polyline class="cls-9" points="190.8 297.84 190.8 285.9 447.71 285.9 447.71 298.44"/><polygon class="cls-2" points="449.39 296.15 447.39 296.15 447.39 284.61 190.01 284.61 190.01 295.56 188.01 295.56 188.01 282.61 449.39 282.61 449.39 296.15"/><path class="cls-10" d="M226.06,248.48a161.11,161.11,0,0,0-17,37.15,8.42,8.42,0,0,0,8,11h11.85Z"/><path class="cls-2" d="M210,296.27a4.43,4.43,0,0,1-2-2.88c-2.39-8.85,9.4-35.32,16.68-47.66l1.72,1c-8.09,13.72-18.53,38.5-16.47,46.12a2.5,2.5,0,0,0,1.08,1.65Z"/><path class="cls-10" d="M414.78,249.35a152.23,152.23,0,0,1,20.13,45.26h-23Z"/><path class="cls-2" d="M433.38,293.7a156.22,156.22,0,0,0-18.89-45.93l1.69-1.06a158.23,158.23,0,0,1,19.14,46.52Z"/><g class="cls-11"><polygon class="cls-12" points="294.99 49.91 234.35 219.24 208.85 219.24 269.49 49.91 294.99 49.91"/><polygon class="cls-12" points="324.39 49.91 263.75 219.24 251 219.24 311.64 49.91 324.39 49.91"/></g><g class="cls-11"><polygon class="cls-12" points="375.99 43.91 315.35 213.24 289.85 213.24 350.49 43.91 375.99 43.91"/><polygon class="cls-12" points="405.39 43.91 344.75 213.24 332 213.24 392.64 43.91 405.39 43.91"/></g><rect class="cls-3" x="13.64" y="294.61" width="566.45" height="11"/><rect class="cls-4" x="14.46" y="295.24" width="566.45" height="1.89"/><polygon class="cls-13" points="575.01 293.66 575.01 302.71 17.27 302.71 17.27 293.66 12.92 293.66 12.92 304.66 579.37 304.66 579.37 293.66 575.01 293.66"/><path class="cls-2" d="M581.09,306.61H12.64v-13H581.09Zm-566.45-2H579.09v-9H14.64Z"/><rect class="cls-14" x="299.5" y="148.12" width="41.53" height="21.16"/><rect class="cls-15" x="301.07" y="147.34" width="7.84" height="21.16"/><path class="cls-2" d="M342.42,169.1H298.89V145.95h43.53Zm-41.53-2h39.53V147.95H300.89Z"/><path class="cls-16" d="M257.74,55.44c-8.49,21.45-3.45,47.62,12.4,64.39a5.74,5.74,0,0,0,2.42-4.53A55.17,55.17,0,0,0,296,150.57l.68-5.52c6,.15,4.24,13,10.26,13.21,4.5.13,6.66-7.9,11-6.62,2.19.65,2.91,3.34,4.38,5.09,3,3.55,9.91,1.84,10.92-2.7,6.44,3.69,14.78,1.9,21.1-2,12.89-7.93,19.5-22.87,24.4-37.19,7.33-21.41,12.61-44.25,8.93-66.58"/><path class="cls-16" d="M257.32,55.46C264,28,279.86,10.83,302.72,4.29c6.61-1.89,13.57-2.17,20.44-1.94,15.63.54,31.64,3.93,44.38,13,13,9.23,19.45,21,20.78,40.12"/><path class="cls-17" d="M378.7,100.75c-4.9,14.32-11.51,29.26-24.4,37.19-6.32,3.89-14.66,5.67-21.1,2-1,4.54-7.92,6.25-10.92,2.7-1.48-1.75-2.19-4.44-4.38-5.09-4.32-1.28-6.48,6.76-11,6.62-6-.18-4.24-13.06-10.26-13.21l-.68,5.52a55.17,55.17,0,0,1-23.42-35.27,5.74,5.74,0,0,1-2.42,4.53A61.76,61.76,0,0,1,254,69.9c-1.9,17.66,3.89,36.2,16.13,49.14a5.74,5.74,0,0,0,2.42-4.53A55.17,55.17,0,0,0,296,149.78l.68-5.52c6,.15,4.24,13,10.26,13.21,4.5.13,6.66-7.9,11-6.62,2.19.65,2.91,3.34,4.38,5.09,3,3.55,9.91,1.84,10.92-2.7,6.44,3.69,14.78,1.9,21.1-2,12.89-7.93,19.5-22.87,24.4-37.19,6.4-18.68,11.23-38.46,9.91-58C387.66,71.19,383.65,86.3,378.7,100.75Z"/><path class="cls-18" d="M386.74,47.69l-2.43.13c-3.3-9.64-9-16.81-17.55-22.88C354,15.88,338,12.49,322.38,12c-6.87-.24-13.84,0-20.44,1.94-19.83,5.68-34.41,19.33-42.26,40.81l-2.73.15v0h-.4c6.67-27.49,22.54-44.63,45.39-51.17,6.61-1.89,13.57-2.17,20.44-1.94,15.63.54,31.63,3.93,44.38,13C378,22.78,384.39,32.7,386.74,47.69Z"/><path class="cls-10" d="M320.24,165h0a88.13,88.13,0,0,1,88.13,88.13v96.52a0,0,0,0,1,0,0H232.11a0,0,0,0,1,0,0V253.15A88.13,88.13,0,0,1,320.24,165Z"/><path class="cls-19" d="M233.68,266.47a88.13,88.13,0,0,1,88.13-88.13h0a88.14,88.14,0,0,1,87.34,76.36v-.77A88.13,88.13,0,0,0,321,165.81h0a88.13,88.13,0,0,0-88.13,88.13v96.52h.78Z"/><path class="cls-2" d="M325.92,159.34a7.18,7.18,0,0,1-5.56-2.44,15.46,15.46,0,0,1-1.44-2.13c-.71-1.19-1.32-2.22-2.23-2.49-1.2-.35-2.22.59-4.08,2.67-1.72,1.92-3.68,4.09-6.51,4-4.07-.12-5.42-4.29-6.51-7.65-.81-2.48-1.45-4.26-2.44-5.07l-.76,6.13-2-1.34a56.36,56.36,0,0,1-23-31.75,6.93,6.93,0,0,1-1.13,1l-1.06.74-.89-.94a63.56,63.56,0,0,1-12.71-66l2.79,1.1c-8,20.29-3.46,45.43,11.08,61.7a4.21,4.21,0,0,0,.84-2.42l.27-14.54,2.71,14.29A54.13,54.13,0,0,0,294,147.13l.54-4.4,1.36,0c4.07.1,5.43,4.28,6.52,7.63s1.92,5.52,3.75,5.58c1.44.07,2.78-1.44,4.19-3,1.79-2,4-4.48,7.17-3.55,2,.6,3.06,2.32,4,3.83a13.14,13.14,0,0,0,1.15,1.73,5.14,5.14,0,0,0,8.31-2.05l.44-2,1.77,1c6.25,3.58,14.21,1.34,19.57-2,12.62-7.76,19.1-22.75,23.77-36.39,6.2-18.1,12.81-41.94,8.87-65.85l3-.49c4,24.57-2.68,48.88-9,67.31-4.84,14.15-11.61,29.72-25,38-5.67,3.49-14,5.89-21.08,2.79a8,8,0,0,1-5.15,3.76A9,9,0,0,1,325.92,159.34Z"/><path class="cls-2" d="M258,55l-2.92-.71c6.65-27.39,22.71-45.46,46.44-52.25,5.86-1.68,12.31-2.29,20.91-2,18.51.64,33.72,5.1,45.2,13.27,13.68,9.73,20.08,22.06,21.4,41.24l-3,.21c-1.26-18.19-7.28-29.85-20.15-39C354.9,8,340.24,3.69,322.33,3.07c-8.27-.28-14.44.29-20,1.88C279.72,11.43,264.38,28.74,258,55Z"/><rect class="cls-12" x="152.92" y="63.86" width="51" height="1"/><rect class="cls-12" x="152.92" y="68.61" width="51" height="1"/><rect class="cls-12" x="208.92" y="63.86" width="12" height="1"/><rect class="cls-12" x="152.92" y="74.86" width="51" height="1"/><rect class="cls-12" x="152.92" y="79.61" width="51" height="1"/><rect class="cls-12" x="208.92" y="74.86" width="12" height="1"/><rect class="cls-12" x="151.92" y="94.86" width="51" height="1"/><rect class="cls-12" x="151.92" y="99.61" width="51" height="1"/><rect class="cls-12" x="207.92" y="94.86" width="12" height="1"/><rect class="cls-12" x="151.92" y="104.86" width="51" height="1"/><rect class="cls-12" x="151.92" y="109.61" width="51" height="1"/><rect class="cls-12" x="207.92" y="104.86" width="12" height="1"/><rect class="cls-20" x="22.89" y="236.1" width="65.82" height="58.77" rx="12" ry="12"/><path class="cls-21" d="M76.92,235.61H35.09A12,12,0,0,0,24.4,242.2a11.88,11.88,0,0,1,3.69-.59H69.92a12,12,0,0,1,12,12v34.77a11.88,11.88,0,0,1-1.31,5.41,12,12,0,0,0,8.31-11.41V247.61A12,12,0,0,0,76.92,235.61Z"/><path class="cls-22" d="M34.92,293.61H76.74A12,12,0,0,0,87.43,287a11.88,11.88,0,0,1-3.69.59H41.92a12,12,0,0,1-12-12V240.84a11.88,11.88,0,0,1,1.31-5.41,12,12,0,0,0-8.31,11.41v34.77A12,12,0,0,0,34.92,293.61Z"/><path class="cls-2" d="M76.71,294.87H34.89a13,13,0,0,1-13-13V247.1a13,13,0,0,1,13-13H76.71a13,13,0,0,1,13,13v34.77A13,13,0,0,1,76.71,294.87ZM34.89,236.1a11,11,0,0,0-11,11v34.77a11,11,0,0,0,11,11H76.71a11,11,0,0,0,11-11V247.1a11,11,0,0,0-11-11Z"/><circle class="cls-8" cx="32.92" cy="245.61" r="1"/><circle class="cls-8" cx="37.25" cy="245.61" r="1"/><circle class="cls-8" cx="41.58" cy="245.61" r="1"/><circle class="cls-8" cx="45.92" cy="245.61" r="1"/><circle class="cls-8" cx="50.25" cy="245.61" r="1"/><circle class="cls-8" cx="54.58" cy="245.61" r="1"/><circle class="cls-8" cx="58.92" cy="245.61" r="1"/><circle class="cls-8" cx="63.25" cy="245.61" r="1"/><circle class="cls-8" cx="67.58" cy="245.61" r="1"/><circle class="cls-8" cx="71.92" cy="245.61" r="1"/><circle class="cls-8" cx="32.92" cy="249.61" r="1"/><circle class="cls-8" cx="37.25" cy="249.61" r="1"/><circle class="cls-8" cx="41.58" cy="249.61" r="1"/><circle class="cls-8" cx="45.92" cy="249.61" r="1"/><circle class="cls-8" cx="50.25" cy="249.61" r="1"/><circle class="cls-8" cx="54.58" cy="249.61" r="1"/><circle class="cls-8" cx="58.92" cy="249.61" r="1"/><circle class="cls-8" cx="63.25" cy="249.61" r="1"/><circle class="cls-8" cx="67.58" cy="249.61" r="1"/><circle class="cls-8" cx="71.92" cy="249.61" r="1"/><circle class="cls-8" cx="32.92" cy="253.61" r="1"/><circle class="cls-8" cx="37.25" cy="253.61" r="1"/><circle class="cls-8" cx="41.58" cy="253.61" r="1"/><circle class="cls-8" cx="45.92" cy="253.61" r="1"/><circle class="cls-8" cx="50.25" cy="253.61" r="1"/><circle class="cls-8" cx="54.58" cy="253.61" r="1"/><circle class="cls-8" cx="58.92" cy="253.61" r="1"/><circle class="cls-8" cx="63.25" cy="253.61" r="1"/><circle class="cls-8" cx="67.58" cy="253.61" r="1"/><circle class="cls-8" cx="71.92" cy="253.61" r="1"/><circle class="cls-8" cx="32.92" cy="257.61" r="1"/><circle class="cls-8" cx="37.25" cy="257.61" r="1"/><circle class="cls-8" cx="41.58" cy="257.61" r="1"/><circle class="cls-8" cx="45.92" cy="257.61" r="1"/><circle class="cls-8" cx="50.25" cy="257.61" r="1"/><circle class="cls-8" cx="54.58" cy="257.61" r="1"/><circle class="cls-8" cx="58.92" cy="257.61" r="1"/><circle class="cls-8" cx="63.25" cy="257.61" r="1"/><circle class="cls-8" cx="67.58" cy="257.61" r="1"/><circle class="cls-8" cx="71.92" cy="257.61" r="1"/><circle class="cls-8" cx="32.92" cy="261.61" r="1"/><circle class="cls-8" cx="37.25" cy="261.61" r="1"/><circle class="cls-8" cx="41.58" cy="261.61" r="1"/><circle class="cls-8" cx="45.92" cy="261.61" r="1"/><circle class="cls-8" cx="50.25" cy="261.61" r="1"/><circle class="cls-8" cx="54.58" cy="261.61" r="1"/><circle class="cls-8" cx="58.92" cy="261.61" r="1"/><circle class="cls-8" cx="63.25" cy="261.61" r="1"/><circle class="cls-8" cx="67.58" cy="261.61" r="1"/><circle class="cls-8" cx="71.92" cy="261.61" r="1"/><circle class="cls-8" cx="32.92" cy="269.61" r="1"/><circle class="cls-8" cx="37.25" cy="269.61" r="1"/><circle class="cls-8" cx="41.58" cy="269.61" r="1"/><circle class="cls-8" cx="45.92" cy="269.61" r="1"/><circle class="cls-8" cx="50.25" cy="269.61" r="1"/><circle class="cls-8" cx="54.58" cy="269.61" r="1"/><circle class="cls-8" cx="58.92" cy="269.61" r="1"/><circle class="cls-8" cx="63.25" cy="269.61" r="1"/><circle class="cls-8" cx="67.58" cy="269.61" r="1"/><circle class="cls-8" cx="71.92" cy="269.61" r="1"/><circle class="cls-8" cx="32.92" cy="273.61" r="1"/><circle class="cls-8" cx="37.25" cy="273.61" r="1"/><circle class="cls-8" cx="41.58" cy="273.61" r="1"/><circle class="cls-8" cx="45.92" cy="273.61" r="1"/><circle class="cls-8" cx="50.25" cy="273.61" r="1"/><circle class="cls-8" cx="54.58" cy="273.61" r="1"/><circle class="cls-8" cx="58.92" cy="273.61" r="1"/><circle class="cls-8" cx="63.25" cy="273.61" r="1"/><circle class="cls-8" cx="67.58" cy="273.61" r="1"/><circle class="cls-8" cx="71.92" cy="273.61" r="1"/><circle class="cls-8" cx="32.92" cy="277.61" r="1"/><circle class="cls-8" cx="37.25" cy="277.61" r="1"/><circle class="cls-8" cx="41.58" cy="277.61" r="1"/><circle class="cls-8" cx="45.92" cy="277.61" r="1"/><circle class="cls-8" cx="50.25" cy="277.61" r="1"/><circle class="cls-8" cx="54.58" cy="277.61" r="1"/><circle class="cls-8" cx="58.92" cy="277.61" r="1"/><circle class="cls-8" cx="63.25" cy="277.61" r="1"/><circle class="cls-8" cx="67.58" cy="277.61" r="1"/><circle class="cls-8" cx="71.92" cy="277.61" r="1"/><circle class="cls-8" cx="32.92" cy="281.61" r="1"/><circle class="cls-8" cx="37.25" cy="281.61" r="1"/><circle class="cls-8" cx="41.58" cy="281.61" r="1"/><circle class="cls-8" cx="45.92" cy="281.61" r="1"/><circle class="cls-8" cx="50.25" cy="281.61" r="1"/><circle class="cls-8" cx="54.58" cy="281.61" r="1"/><circle class="cls-8" cx="58.92" cy="281.61" r="1"/><circle class="cls-8" cx="63.25" cy="281.61" r="1"/><circle class="cls-8" cx="67.58" cy="281.61" r="1"/><circle class="cls-8" cx="71.92" cy="281.61" r="1"/><circle class="cls-8" cx="32.92" cy="265.61" r="1"/><circle class="cls-8" cx="37.25" cy="265.61" r="1"/><circle class="cls-8" cx="41.58" cy="265.61" r="1"/><circle class="cls-8" cx="45.92" cy="265.61" r="1"/><circle class="cls-8" cx="50.25" cy="265.61" r="1"/><circle class="cls-8" cx="54.58" cy="265.61" r="1"/><circle class="cls-8" cx="58.92" cy="265.61" r="1"/><circle class="cls-8" cx="63.25" cy="265.61" r="1"/><circle class="cls-8" cx="67.58" cy="265.61" r="1"/><circle class="cls-8" cx="71.92" cy="265.61" r="1"/><text class="cls-23" transform="translate(490.58 61.91) scale(1.57 1)">X</text><rect class="cls-20" x="533.55" y="248.64" width="36.17" height="45.21" rx="0.64" ry="0.64"/><path class="cls-24" d="M569.72,252V291.5a2.36,2.36,0,0,1-2.36,2.36l-32,.75c-1.84,0-2.59-1.5-2.59-3.34v-5.51a.18.18,0,0,1,.18-.18,45.67,45.67,0,0,0,10.63-1c6.26-1.38,12.37-4.58,15.93-9.92a26.76,26.76,0,0,0,3.42-8.06,46.35,46.35,0,0,0,1.16-17.74.19.19,0,0,1,.27-.19C567.09,249.87,569.72,248.86,569.72,252Z"/><path class="cls-25" d="M541.33,249.4v2.67a33.67,33.67,0,0,1-8.92,22.82h0l.38-17.21L533,250l1.38-1.26,3.64-.13Z"/><path class="cls-2" d="M566.34,295.61H536.17a4.38,4.38,0,0,1-4.37-4.37V252a4.38,4.38,0,0,1,4.38-4.37h30.17a4.38,4.38,0,0,1,4.38,4.38v39.22A4.38,4.38,0,0,1,566.34,295.61Zm-30.17-46a2.38,2.38,0,0,0-2.37,2.38v39.22a2.38,2.38,0,0,0,2.38,2.38h30.17a2.38,2.38,0,0,0,2.38-2.37V252a2.38,2.38,0,0,0-2.37-2.37Z"/><path class="cls-2" d="M544.61,246.65l-.38-.93a8.59,8.59,0,0,0,4.62-3.85c.79-1.64.61-4.1-1-5.23a7,7,0,0,0-1.58-.72c-.37-.13-.74-.27-1.09-.44a6.65,6.65,0,0,1,2.25-12.65l.09,1a5.65,5.65,0,0,0-1.91,10.75c.33.15.67.28,1,.4a7.83,7.83,0,0,1,1.8.84c2.11,1.45,2.35,4.44,1.37,6.49A9.56,9.56,0,0,1,544.61,246.65Z"/><path class="cls-2" d="M558,233.65a9.56,9.56,0,0,1-5.14-4.34c-1-2.05-.74-5,1.37-6.49a7.84,7.84,0,0,1,1.8-.84c.34-.12.68-.25,1-.4a5.65,5.65,0,0,0-1.91-10.75l.09-1a6.65,6.65,0,0,1,2.25,12.65c-.35.17-.73.3-1.1.44a7,7,0,0,0-1.58.72c-1.65,1.13-1.82,3.6-1,5.23a8.6,8.6,0,0,0,4.62,3.85Z"/><rect class="cls-2" x="24.92" y="206.95" width="2" height="23.32" transform="translate(-50.39 12.12) rotate(-13.52)"/><rect class="cls-2" x="9.92" y="218.95" width="2" height="23.32" transform="translate(-201.05 139.13) rotate(-63.95)"/><rect class="cls-2" x="19.42" y="220.88" width="2" height="13.45" transform="translate(-147.02 72.09) rotate(-41.99)"/><path class="cls-2" d="M63,396.61v10a.75.75,0,0,0,1.5,0v-10a.75.75,0,0,0-1.5,0Z"/><path class="cls-2" d="M51,396.61v3a.75.75,0,0,0,1.5,0v-3a.75.75,0,0,0-1.5,0Z"/><path class="cls-2" d="M517,396.61v10a.75.75,0,0,0,1.5,0v-10a.75.75,0,0,0-1.5,0Z"/><path class="cls-2" d="M529,396.61v3a.75.75,0,0,0,1.5,0v-3a.75.75,0,0,0-1.5,0Z"/><g class="cls-1"><path class="cls-2" d="M154.71,363.61h-62v-19h62Zm-60-2h58v-15h-58Z"/><path class="cls-2" d="M214.71,363.61h-62v-19h62Zm-60-2h58v-15h-58Z"/><path class="cls-2" d="M183.71,346.61h-62v-19h62Zm-60-2h58v-15h-58Z"/></g><g class="cls-1"><path class="cls-2" d="M72.71,172.61h-62v-19h62Zm-60-2h58v-15h-58Z"/><path class="cls-2" d="M117.71,190.61h-62v-19h62Zm-60-2h58v-15h-58Z"/></g><path class="cls-2" d="M410.21,349.84H232V252.31a89.13,89.13,0,1,1,178.26,0Zm-176.26-2H408.21V252.31a87.13,87.13,0,1,0-174.26,0Z"/><path class="cls-26" d="M258.26,189.57H383.11a34,34,0,0,1,34,34V391.1a2.3,2.3,0,0,1-2.3,2.3H226.6a2.3,2.3,0,0,1-2.3-2.3V223.53A34,34,0,0,1,258.26,189.57Z"/><path class="cls-27" d="M416.07,233.27V393.39H223.3v-6.18c15.65,1.51,31.4,2.41,47.16,2.71,42.58.78,82.77-8.4,107.32-37.78,14.58-17.45,20.12-38.42,24.61-58.68C406.64,274.29,416.07,252.66,416.07,233.27Z"/><path class="cls-28" d="M390,190.61H252.19c-13.19,0-26.89,12.18-26.89,24.75v10.21c0-12.56,13.7-22.75,26.89-22.75H390c13.19,0,25.89,10.18,25.89,22.75V215.36C415.92,202.79,403.22,190.61,390,190.61Z"/><path class="cls-2" d="M418.57,393.08h-3V220.92a30.2,30.2,0,0,0-30.16-30.16H256a30.2,30.2,0,0,0-30.16,30.16V393.08h-3V220.92A33.2,33.2,0,0,1,256,187.76H385.41a33.2,33.2,0,0,1,33.16,33.16Z"/><path class="cls-2" d="M223,396.61v10a.75.75,0,0,0,1.5,0v-10a.75.75,0,0,0-1.5,0Z"/><path class="cls-2" d="M235,396.61v3a.75.75,0,0,0,1.5,0v-3a.75.75,0,0,0-1.5,0Z"/><path class="cls-2" d="M417,395.94v20a.75.75,0,0,0,1.5,0v-20a.75.75,0,0,0-1.5,0Z"/><path class="cls-2" d="M405,395.94v6a.75.75,0,0,0,1.5,0v-6a.75.75,0,0,0-1.5,0Z"/></g></g></svg>